<svg width="80" height="80" viewBox="0 0 80 80" fill="none" xmlns="http://www.w3.org/2000/svg">
<rect width="80" height="80" rx="8" fill="white"/>
<path d="M17.398 35.36C17.2113 35.0667 17.038 34.6667 16.878 34.16C16.718 33.6533 16.638 33.12 16.638 32.56C16.638 31.52 16.8646 30.7733 17.318 30.32C17.798 29.8667 18.4113 29.64 19.158 29.64H36.598C36.7846 29.9333 36.958 30.3333 37.118 30.84C37.278 31.3467 37.358 31.88 37.358 32.44C37.358 33.48 37.118 34.2267 36.638 34.68C36.1846 35.1333 35.5846 35.36 34.838 35.36H30.398V53.84C30.1046 53.92 29.638 54 28.998 54.08C28.3846 54.16 27.7713 54.2 27.158 54.2C26.5446 54.2 25.998 54.1467 25.518 54.04C25.0646 53.96 24.678 53.8 24.358 53.56C24.038 53.32 23.798 52.9867 23.638 52.56C23.478 52.1333 23.398 51.5733 23.398 50.88V35.36H17.398ZM55.8505 53.2C55.4771 53.52 54.8905 53.8 54.0905 54.04C53.3171 54.28 52.4638 54.4 51.5305 54.4C50.4105 54.4 49.4505 54.24 48.6505 53.92C47.8505 53.5733 47.3038 53.1067 47.0105 52.52C46.7171 51.9067 46.3571 51.12 45.9305 50.16C45.5038 49.1733 45.0505 48.08 44.5705 46.88C44.1171 45.68 43.6371 44.4133 43.1305 43.08C42.6505 41.72 42.1838 40.3467 41.7305 38.96C41.2771 37.5733 40.8505 36.2133 40.4505 34.88C40.0505 33.5467 39.7038 32.2933 39.4105 31.12C39.7838 30.7467 40.3171 30.4133 41.0105 30.12C41.7305 29.8 42.4905 29.64 43.2905 29.64C44.2771 29.64 45.0771 29.8533 45.6905 30.28C46.3305 30.68 46.7971 31.44 47.0905 32.56C47.8105 35.1733 48.5305 37.68 49.2505 40.08C49.9971 42.4533 50.7705 44.9333 51.5705 47.52H51.8105C52.5305 45.0133 53.2638 42.28 54.0105 39.32C54.7838 36.36 55.5171 33.4133 56.2105 30.48C56.6905 30.24 57.1971 30.04 57.7305 29.88C58.2905 29.72 58.9171 29.64 59.6105 29.64C60.5971 29.64 61.4371 29.8667 62.1305 30.32C62.8238 30.7467 63.1705 31.4667 63.1705 32.48C63.1705 33.0667 63.0238 33.92 62.7305 35.04C62.4638 36.16 62.1038 37.4267 61.6505 38.84C61.2238 40.2267 60.7305 41.68 60.1705 43.2C59.6371 44.72 59.0905 46.16 58.5305 47.52C57.9971 48.8533 57.4905 50.04 57.0105 51.08C56.5305 52.0933 56.1438 52.8 55.8505 53.2Z" fill="black"/>
</svg>