<svg xmlns="http://www.w3.org/2000/svg" aria-hidden="true" style="position:absolute;width:0;height:0;overflow:hidden">
    <defs>
        <!-- icon-telegram -->
        <symbol id="icon-telegram" viewBox="0 0 32 32">
            <path fill="#fff" style="fill: var(--color1, #fff)"
                d="M29.968 13.968c0 7.714-6.254 13.968-13.968 13.968s-13.968-6.254-13.968-13.968c0-7.714 6.254-13.968 13.968-13.968s13.968 6.254 13.968 13.968z">
            </path>
            <path fill="#21a7e6" style="fill: var(--color2, #21a7e6)"
                d="M16 25.397c6.312 0 11.429-5.116 11.429-11.429s-5.116-11.429-11.429-11.429c-6.312 0-11.429 5.116-11.429 11.429s5.116 11.429 11.429 11.429zM14.099 16.293l5.299-4.782c0.233-0.206-0.051-0.307-0.359-0.12l-6.54 4.126-2.825-0.881c-0.61-0.187-0.614-0.606 0.137-0.907l11.009-4.245c0.503-0.229 0.988 0.121 0.796 0.89l-1.875 8.834c-0.131 0.628-0.51 0.778-1.036 0.488l-2.856-2.11-1.373 1.335c-0.159 0.155-0.286 0.286-0.571 0.286l0.194-2.914h-0.001z">
            </path>
        </symbol>


    </defs>
</svg>
