<svg xmlns="http://www.w3.org/2000/svg" aria-hidden="true" style="position:absolute;width:0;height:0;overflow:hidden">
    <defs>
        <!-- icon-telegram -->
        <symbol id="icon-telegram" viewBox="0 0 32 32">
            <path fill="#fff" style="fill: var(--color1, #fff)"
                d="M29.968 13.968c0 7.714-6.254 13.968-13.968 13.968s-13.968-6.254-13.968-13.968c0-7.714 6.254-13.968 13.968-13.968s13.968 6.254 13.968 13.968z">
            </path>
            <path fill="#21a7e6" style="fill: var(--color2, #21a7e6)"
                d="M16 25.397c6.312 0 11.429-5.116 11.429-11.429s-5.116-11.429-11.429-11.429c-6.312 0-11.429 5.116-11.429 11.429s5.116 11.429 11.429 11.429zM14.099 16.293l5.299-4.782c0.233-0.206-0.051-0.307-0.359-0.12l-6.54 4.126-2.825-0.881c-0.61-0.187-0.614-0.606 0.137-0.907l11.009-4.245c0.503-0.229 0.988 0.121 0.796 0.89l-1.875 8.834c-0.131 0.628-0.51 0.778-1.036 0.488l-2.856-2.11-1.373 1.335c-0.159 0.155-0.286 0.286-0.571 0.286l0.194-2.914h-0.001z">
            </path>
        </symbol>
        <!-- icon-viber -->
        <symbol id="icon-viber" viewBox="0 0 32 32">
            <path fill="#665cac" style="fill: var(--color1, #665cac)"
                d="M29.968 13.968c0 7.714-6.254 13.968-13.968 13.968s-13.968-6.254-13.968-13.968c0-7.714 6.254-13.968 13.968-13.968s13.968 6.254 13.968 13.968z">
            </path>
            <path fill="#fff" style="fill: var(--color2, #fff)"
                d="M15.426 3.558c-1.834 0.025-5.778 0.326-7.985 2.348-1.638 1.629-2.211 4.029-2.277 7.003-0.057 2.962-0.124 8.524 5.238 10.039v2.305c0 0-0.036 0.924 0.574 1.114 0.752 0.238 1.181-0.475 1.895-1.237l1.334-1.505c3.666 0.305 6.476-0.399 6.8-0.504 0.743-0.238 4.934-0.772 5.62-6.335 0.705-5.744-0.343-9.363-2.229-11.001l-0.009-0.002c-0.571-0.524-2.857-2.191-7.971-2.209 0 0-0.377-0.024-0.989-0.015v-0.001zM15.491 5.173c0.519-0.003 0.838 0.019 0.838 0.019 4.324 0.009 6.391 1.314 6.877 1.752 1.591 1.361 2.408 4.625 1.809 9.421-0.571 4.648-3.971 4.943-4.6 5.143-0.266 0.086-2.743 0.695-5.859 0.495 0 0-2.323 2.801-3.046 3.525-0.114 0.124-0.248 0.162-0.334 0.143-0.124-0.029-0.162-0.181-0.152-0.391l0.019-3.828c-4.544-1.257-4.277-6.002-4.229-8.478 0.057-2.476 0.524-4.506 1.905-5.878 1.864-1.686 5.214-1.914 6.772-1.924zM15.834 7.65h-0.001c-0.157 0-0.285 0.127-0.285 0.285s0.128 0.286 0.286 0.286c0.031-0.001 0.066-0.001 0.102-0.001 1.453 0 2.771 0.578 3.737 1.516l-0.001-0.001c1.038 1.009 1.544 2.362 1.563 4.134 0 0.158 0.128 0.286 0.286 0.286v-0.009c0.158 0 0.286-0.128 0.286-0.286 0.004-0.078 0.006-0.169 0.006-0.26 0-1.661-0.659-3.169-1.731-4.275l0.001 0.001c-1.134-1.105-2.564-1.676-4.249-1.676zM12.068 8.307c-0.039-0.006-0.083-0.009-0.129-0.009-0.169 0-0.326 0.046-0.461 0.126l0.004-0.002h-0.011c-0.391 0.229-0.751 0.514-1.094 0.895-0.257 0.305-0.401 0.609-0.439 0.904-0.006 0.046-0.010 0.098-0.010 0.151 0 0.13 0.021 0.255 0.060 0.372l-0.002-0.009 0.019 0.009c0.327 0.951 0.713 1.769 1.176 2.535l-0.033-0.059c0.639 1.149 1.373 2.14 2.215 3.026l-0.006-0.006 0.029 0.038 0.038 0.029 0.057 0.057c0.883 0.839 1.877 1.575 2.954 2.181l0.074 0.039c1.257 0.686 2.021 1.009 2.478 1.143v0.009c0.134 0.038 0.255 0.057 0.379 0.057 0.407-0.031 0.771-0.196 1.051-0.451l-0.001 0.001c0.371-0.334 0.666-0.703 0.886-1.094v-0.009c0.219-0.409 0.143-0.801-0.171-1.068-0.604-0.53-1.273-1.015-1.986-1.434l-0.061-0.033c-0.486-0.266-0.981-0.105-1.181 0.162l-0.429 0.542c-0.219 0.266-0.619 0.229-0.619 0.229l-0.011 0.009c-2.971-0.762-3.762-3.771-3.762-3.771s-0.038-0.409 0.238-0.619l0.534-0.429c0.257-0.209 0.438-0.705 0.162-1.191-0.451-0.774-0.936-1.444-1.479-2.062l0.012 0.014c-0.119-0.146-0.285-0.249-0.475-0.285l-0.005-0.001 0.001 0.001zM16.328 9.155c-0.157 0.001-0.285 0.129-0.285 0.286s0.128 0.286 0.286 0.286h0.001c0.991 0.018 1.883 0.434 2.523 1.094l0.001 0.001c0.536 0.589 0.864 1.376 0.864 2.239 0 0.074-0.002 0.146-0.007 0.219l0.001-0.010c0.001 0.157 0.129 0.285 0.286 0.285l0.009 0.011c0.158 0 0.286-0.128 0.286-0.286 0.029-1.134-0.324-2.086-1.019-2.849s-1.666-1.191-2.905-1.276c-0.006-0.001-0.013-0.001-0.020-0.001s-0.014 0-0.021 0.001h0.001l0.001 0.001zM16.794 10.696c-0.003 0-0.006 0-0.009 0-0.161 0-0.291 0.13-0.291 0.291 0 0.158 0.126 0.286 0.282 0.291h0.001c0.943 0.048 1.4 0.524 1.457 1.505 0.005 0.154 0.131 0.276 0.286 0.276h0.009c0.154-0.005 0.277-0.131 0.277-0.286 0-0.006 0-0.014-0.001-0.020-0.066-1.276-0.762-1.991-2-2.057-0.001 0-0.004 0-0.006 0s-0.004 0-0.006 0l-0.001-0.001z">
            </path>
        </symbol>
        <!-- icon-whatsapp -->
        <symbol id="icon-whatsapp" viewBox="0 0 32 32">
            <path fill="#11ba17" style="fill: var(--color1, #11ba17)"
                d="M29.968 13.968c0 7.714-6.254 13.968-13.968 13.968s-13.968-6.254-13.968-13.968c0-7.714 6.254-13.968 13.968-13.968s13.968 6.254 13.968 13.968z">
            </path>
            <path fill="#fff" style="fill: var(--color2, #fff)"
                d="M21.211 16.237c-0.283-0.142-1.674-0.826-1.934-0.921s-0.449-0.141-0.638 0.143c-0.188 0.283-0.731 0.92-0.895 1.109s-0.331 0.212-0.614 0.071c-0.283-0.143-1.195-0.441-2.276-1.405-0.841-0.751-1.409-1.677-1.574-1.961s-0.017-0.436 0.124-0.577c0.128-0.126 0.284-0.331 0.425-0.495 0.142-0.166 0.189-0.284 0.284-0.474 0.094-0.189 0.048-0.354-0.024-0.495s-0.637-1.535-0.872-2.102c-0.231-0.551-0.464-0.476-0.637-0.486-0.165-0.008-0.354-0.009-0.543-0.009s-0.495 0.071-0.754 0.354c-0.259 0.283-0.991 0.968-0.991 2.361s1.014 2.738 1.155 2.928c0.142 0.189 1.996 3.048 4.835 4.274 0.675 0.291 1.202 0.466 1.614 0.595 0.678 0.216 1.295 0.186 1.782 0.112 0.544-0.081 1.674-0.685 1.911-1.346s0.236-1.228 0.165-1.346c-0.071-0.118-0.258-0.189-0.542-0.331zM16.048 23.288h-0.004c-1.686 0-3.341-0.453-4.791-1.312l-0.344-0.204-3.563 0.935 0.951-3.474-0.224-0.356c-0.942-1.501-1.441-3.237-1.438-5.009 0.001-5.191 4.225-9.414 9.417-9.414 2.514 0 4.878 0.981 6.655 2.76 0.877 0.873 1.572 1.911 2.045 3.054s0.714 2.369 0.711 3.606c-0.003 5.191-4.226 9.414-9.414 9.414h-0.001zM24.060 5.862c-1.049-1.056-2.298-1.894-3.674-2.464s-2.85-0.862-4.339-0.858c-6.243 0-11.324 5.081-11.326 11.326 0 1.996 0.521 3.945 1.512 5.662l-1.608 5.869 6.005-1.575c1.661 0.905 3.521 1.379 5.412 1.379h0.005c6.242 0 11.324-5.081 11.326-11.326 0.004-1.489-0.286-2.963-0.855-4.338s-1.405-2.624-2.459-3.674l0.001-0.001z">
            </path>
        </symbol>

        <!-- icon-logo -->
        <symbol id="icon-logo" viewBox="0 0 85 32">
            <path fill="#fff" style="fill: var(--color1, #fff)"
                d="M42.026 12.946h-3.318c-0.125 0-0.217-0.026-0.276-0.079-0.053-0.059-0.079-0.151-0.079-0.276v-6.38c0-0.125 0.026-0.213 0.079-0.266 0.059-0.059 0.151-0.089 0.276-0.089h3.318c0.82 0 1.428 0.164 1.822 0.492 0.4 0.328 0.601 0.834 0.601 1.516v3.072c0 0.683-0.2 1.188-0.601 1.516-0.394 0.328-1.001 0.492-1.822 0.492zM40.589 7.737v3.348h1.172c0.158 0 0.272-0.039 0.345-0.118 0.079-0.079 0.118-0.2 0.118-0.364v-2.393c0-0.164-0.039-0.282-0.118-0.354-0.072-0.079-0.187-0.118-0.345-0.118h-1.172zM47.531 12.946h-1.477c-0.125 0-0.217-0.026-0.276-0.079-0.053-0.059-0.079-0.151-0.079-0.276v-6.38c0-0.125 0.026-0.213 0.079-0.266 0.059-0.059 0.151-0.089 0.276-0.089h1.024c0.125 0 0.23 0.020 0.315 0.059 0.092 0.039 0.18 0.108 0.266 0.207l1.91 2.186v-2.097c0-0.125 0.026-0.213 0.079-0.266 0.059-0.059 0.151-0.089 0.276-0.089h1.477c0.125 0 0.213 0.030 0.266 0.089 0.059 0.053 0.089 0.141 0.089 0.266v6.38c0 0.125-0.030 0.217-0.089 0.276-0.053 0.053-0.141 0.079-0.266 0.079h-1.477c-0.125 0-0.217-0.026-0.276-0.079-0.053-0.059-0.079-0.151-0.079-0.276v-1.211l-1.684-2.038v3.249c0 0.125-0.030 0.217-0.089 0.276-0.053 0.053-0.141 0.079-0.266 0.079zM53.31 12.946c-0.125 0-0.217-0.026-0.276-0.079-0.052-0.059-0.079-0.151-0.079-0.276v-1.172c0-0.125 0.027-0.213 0.079-0.266 0.059-0.059 0.151-0.089 0.276-0.089h0.975v-3.308h-0.975c-0.125 0-0.217-0.026-0.276-0.079-0.052-0.059-0.079-0.151-0.079-0.276v-1.191c0-0.125 0.027-0.213 0.079-0.266 0.059-0.059 0.151-0.089 0.276-0.089h4.194c0.125 0 0.214 0.030 0.266 0.089 0.059 0.053 0.089 0.141 0.089 0.266v1.191c0 0.125-0.030 0.217-0.089 0.276-0.052 0.053-0.141 0.079-0.266 0.079h-0.955v3.308h0.955c0.125 0 0.214 0.030 0.266 0.089 0.059 0.053 0.089 0.141 0.089 0.266v1.172c0 0.125-0.030 0.217-0.089 0.276-0.052 0.053-0.141 0.079-0.266 0.079h-4.194zM60.956 12.946h-1.526c-0.125 0-0.217-0.026-0.276-0.079-0.053-0.059-0.079-0.151-0.079-0.276v-6.38c0-0.125 0.026-0.213 0.079-0.266 0.059-0.059 0.151-0.089 0.276-0.089h3.013c0.893 0 1.503 0.177 1.831 0.532s0.492 0.817 0.492 1.388v1.26c0 0.571-0.164 1.034-0.492 1.388s-0.939 0.532-1.831 0.532h-1.132v1.634c0 0.125-0.030 0.217-0.089 0.276-0.053 0.053-0.141 0.079-0.266 0.079zM61.29 7.698v1.487h0.886c0.19 0 0.315-0.049 0.374-0.148s0.089-0.21 0.089-0.335v-0.522c0-0.125-0.030-0.236-0.089-0.335s-0.184-0.148-0.374-0.148h-0.886zM68.012 7.629v1.26h0.738c0.17 0 0.286-0.043 0.345-0.128 0.059-0.092 0.089-0.203 0.089-0.335v-0.335c0-0.131-0.030-0.24-0.089-0.325-0.059-0.092-0.174-0.138-0.345-0.138h-0.738zM67.657 12.946h-1.516c-0.125 0-0.217-0.026-0.276-0.079-0.053-0.059-0.079-0.151-0.079-0.276v-6.38c0-0.125 0.026-0.213 0.079-0.266 0.059-0.059 0.151-0.089 0.276-0.089h3.279c0.735 0 1.241 0.154 1.516 0.463 0.282 0.302 0.423 0.696 0.423 1.182v0.453c0 0.276-0.043 0.512-0.128 0.709-0.079 0.19-0.22 0.328-0.423 0.414 0.354 0.039 0.64 0.184 0.857 0.433 0.223 0.249 0.335 0.581 0.335 0.994v2.087c0 0.125-0.030 0.217-0.089 0.276-0.053 0.053-0.141 0.079-0.266 0.079h-1.526c-0.125 0-0.217-0.026-0.276-0.079-0.053-0.059-0.079-0.151-0.079-0.276v-1.506c0-0.144-0.030-0.249-0.089-0.315-0.053-0.072-0.148-0.108-0.286-0.108h-1.378v1.93c0 0.125-0.030 0.217-0.089 0.276-0.053 0.053-0.141 0.079-0.266 0.079zM79.062 11.085c0 0.302-0.046 0.578-0.138 0.827-0.085 0.243-0.243 0.453-0.473 0.63-0.223 0.171-0.535 0.305-0.935 0.404-0.394 0.098-0.896 0.148-1.506 0.148s-1.116-0.049-1.516-0.148c-0.4-0.098-0.715-0.233-0.945-0.404-0.223-0.177-0.381-0.387-0.473-0.63-0.085-0.249-0.128-0.525-0.128-0.827v-3.358c0-0.302 0.043-0.574 0.128-0.817 0.092-0.249 0.25-0.463 0.473-0.64 0.23-0.177 0.545-0.315 0.945-0.414s0.906-0.148 1.516-0.148c0.61 0 1.113 0.049 1.506 0.148 0.4 0.098 0.712 0.236 0.935 0.414 0.23 0.177 0.387 0.391 0.473 0.64 0.092 0.243 0.138 0.515 0.138 0.817v3.358zM75.182 10.73c0 0.131 0.049 0.243 0.148 0.335 0.098 0.085 0.325 0.128 0.679 0.128s0.581-0.043 0.679-0.128c0.098-0.092 0.148-0.203 0.148-0.335v-2.649c0-0.125-0.049-0.23-0.148-0.315-0.098-0.092-0.325-0.138-0.679-0.138s-0.581 0.046-0.679 0.138c-0.098 0.085-0.148 0.19-0.148 0.315v2.649z">
            </path>
            <path fill="#e96e6e" style="fill: var(--color2, #e96e6e)"
                d="M40.117 24.761h-1.467c-0.125 0-0.217-0.026-0.276-0.079-0.053-0.059-0.079-0.151-0.079-0.276v-6.38c0-0.125 0.026-0.213 0.079-0.266 0.059-0.059 0.151-0.089 0.276-0.089h1.585c0.105 0 0.19 0.023 0.256 0.069 0.072 0.046 0.138 0.121 0.197 0.226l0.886 1.605c0.033 0.059 0.059 0.102 0.079 0.128 0.026 0.026 0.059 0.039 0.098 0.039h0.089c0.039 0 0.069-0.013 0.089-0.039 0.026-0.026 0.056-0.069 0.089-0.128l0.876-1.605c0.059-0.105 0.121-0.181 0.187-0.226 0.072-0.046 0.161-0.069 0.266-0.069h1.595c0.125 0 0.213 0.030 0.266 0.089 0.059 0.053 0.089 0.141 0.089 0.266v6.38c0 0.125-0.030 0.217-0.089 0.276-0.053 0.053-0.141 0.079-0.266 0.079h-1.516c-0.125 0-0.217-0.026-0.276-0.079-0.053-0.059-0.079-0.151-0.079-0.276v-3.466l-0.581 1.073c-0.059 0.112-0.131 0.194-0.217 0.246-0.079 0.046-0.181 0.069-0.305 0.069h-0.394c-0.125 0-0.23-0.023-0.315-0.069-0.079-0.053-0.148-0.135-0.207-0.246l-0.581-1.073v3.466c0 0.125-0.030 0.217-0.089 0.276-0.053 0.053-0.141 0.079-0.266 0.079zM49.222 19.74l-0.463 1.497h1.546l-0.463-1.497c-0.026-0.059-0.056-0.102-0.089-0.128-0.026-0.026-0.059-0.039-0.098-0.039h-0.246c-0.039 0-0.075 0.013-0.108 0.039-0.026 0.026-0.052 0.069-0.079 0.128zM48.66 24.407c0 0.125-0.030 0.217-0.089 0.276-0.052 0.053-0.141 0.079-0.266 0.079h-1.447c-0.125 0-0.217-0.026-0.276-0.079-0.052-0.059-0.079-0.151-0.079-0.276v-2.599c0-0.197 0.030-0.423 0.089-0.679 0.066-0.256 0.164-0.555 0.295-0.896l0.857-2.235c0.039-0.112 0.098-0.194 0.177-0.246 0.085-0.053 0.194-0.079 0.325-0.079h2.648c0.125 0 0.226 0.026 0.305 0.079 0.086 0.053 0.148 0.135 0.187 0.246l0.857 2.235c0.131 0.341 0.226 0.64 0.286 0.896 0.066 0.256 0.098 0.482 0.098 0.679v2.599c0 0.125-0.030 0.217-0.089 0.276-0.052 0.053-0.141 0.079-0.266 0.079h-1.487c-0.131 0-0.229-0.026-0.295-0.079-0.059-0.059-0.089-0.151-0.089-0.276v-1.378h-1.743v1.378zM57.133 24.761h-3.111c-0.125 0-0.217-0.026-0.276-0.079-0.053-0.059-0.079-0.151-0.079-0.276v-1.152c0-0.125 0.026-0.213 0.079-0.266 0.059-0.059 0.151-0.089 0.276-0.089h2.649c0.085 0 0.148-0.026 0.187-0.079 0.046-0.059 0.069-0.128 0.069-0.207 0-0.112-0.023-0.194-0.069-0.246-0.039-0.053-0.102-0.082-0.187-0.089l-1.477-0.207c-0.46-0.066-0.831-0.217-1.113-0.453-0.276-0.236-0.414-0.63-0.414-1.182v-1.034c0-0.558 0.18-0.985 0.542-1.28 0.361-0.302 0.86-0.453 1.497-0.453h2.757c0.125 0 0.213 0.030 0.266 0.089 0.059 0.053 0.089 0.141 0.089 0.266v1.172c0 0.125-0.030 0.217-0.089 0.276-0.053 0.053-0.141 0.079-0.266 0.079h-2.294c-0.086 0-0.151 0.030-0.197 0.089-0.046 0.053-0.069 0.121-0.069 0.207s0.023 0.158 0.069 0.217c0.046 0.059 0.111 0.092 0.197 0.098l1.467 0.197c0.459 0.066 0.83 0.217 1.113 0.453s0.423 0.63 0.423 1.182v1.034c0 0.558-0.184 0.988-0.551 1.29-0.361 0.295-0.857 0.443-1.487 0.443zM63.499 24.761h-1.595c-0.125 0-0.217-0.026-0.276-0.079-0.052-0.059-0.079-0.151-0.079-0.276v-4.834h-1.447c-0.125 0-0.217-0.026-0.276-0.079-0.052-0.059-0.079-0.151-0.079-0.276v-1.191c0-0.125 0.027-0.213 0.079-0.266 0.059-0.059 0.151-0.089 0.276-0.089h5.199c0.125 0 0.214 0.030 0.266 0.089 0.059 0.053 0.089 0.141 0.089 0.266v1.191c0 0.125-0.030 0.217-0.089 0.276-0.052 0.053-0.141 0.079-0.266 0.079h-1.447v4.834c0 0.125-0.030 0.217-0.089 0.276-0.052 0.053-0.141 0.079-0.266 0.079zM71.536 24.761h-4.569c-0.125 0-0.217-0.026-0.276-0.079-0.052-0.059-0.079-0.151-0.079-0.276v-6.38c0-0.125 0.027-0.213 0.079-0.266 0.059-0.059 0.151-0.089 0.276-0.089h4.569c0.125 0 0.214 0.030 0.266 0.089 0.059 0.053 0.089 0.141 0.089 0.266v1.152c0 0.125-0.030 0.217-0.089 0.276-0.052 0.053-0.141 0.079-0.266 0.079h-2.718v0.758h1.92c0.125 0 0.214 0.030 0.266 0.089 0.059 0.053 0.089 0.141 0.089 0.266v1.054c0 0.125-0.030 0.217-0.089 0.276-0.052 0.053-0.141 0.079-0.266 0.079h-1.92v0.847h2.718c0.125 0 0.214 0.030 0.266 0.089 0.059 0.053 0.089 0.141 0.089 0.266v1.152c0 0.125-0.030 0.217-0.089 0.276-0.052 0.053-0.141 0.079-0.266 0.079zM75.281 19.444v1.26h0.738c0.171 0 0.286-0.043 0.345-0.128 0.059-0.092 0.089-0.203 0.089-0.335v-0.335c0-0.131-0.030-0.24-0.089-0.325-0.059-0.092-0.174-0.138-0.345-0.138h-0.738zM74.926 24.761h-1.516c-0.125 0-0.217-0.026-0.276-0.079-0.053-0.059-0.079-0.151-0.079-0.276v-6.38c0-0.125 0.026-0.213 0.079-0.266 0.059-0.059 0.151-0.089 0.276-0.089h3.279c0.735 0 1.241 0.154 1.516 0.463 0.282 0.302 0.423 0.696 0.423 1.182v0.453c0 0.276-0.043 0.512-0.128 0.709-0.079 0.19-0.22 0.328-0.423 0.414 0.354 0.039 0.64 0.184 0.857 0.433 0.223 0.249 0.335 0.581 0.335 0.994v2.087c0 0.125-0.030 0.217-0.089 0.276-0.053 0.053-0.141 0.079-0.266 0.079h-1.526c-0.125 0-0.217-0.026-0.276-0.079-0.053-0.059-0.079-0.151-0.079-0.276v-1.506c0-0.144-0.030-0.249-0.089-0.315-0.053-0.072-0.148-0.108-0.286-0.108h-1.378v1.93c0 0.125-0.030 0.217-0.089 0.276-0.053 0.053-0.141 0.079-0.266 0.079z">
            </path>
            <path fill="#fff" style="fill: var(--color1, #fff)"
                d="M6.898 2.939h18.43c2.175 0 3.938 1.763 3.938 3.938v18.245c0 2.175-1.763 3.938-3.938 3.938h-18.43c-2.175 0-3.938-1.763-3.938-3.938v-18.245c0-2.175 1.763-3.938 3.938-3.938z">
            </path>
            <path fill="#454343" style="fill: var(--color3, #454343)"
                d="M7.211 15.762c-0.074-0.116-0.142-0.273-0.205-0.473s-0.095-0.41-0.095-0.63c0-0.41 0.089-0.704 0.268-0.882 0.189-0.179 0.431-0.268 0.725-0.268h6.869c0.073 0.116 0.142 0.273 0.205 0.473s0.095 0.41 0.095 0.63c0 0.41-0.095 0.704-0.284 0.882-0.179 0.179-0.415 0.268-0.709 0.268h-1.749v7.278c-0.116 0.032-0.299 0.063-0.551 0.095-0.242 0.032-0.483 0.047-0.725 0.047s-0.457-0.021-0.646-0.063c-0.179-0.032-0.331-0.095-0.457-0.189s-0.221-0.226-0.284-0.394c-0.063-0.168-0.095-0.389-0.095-0.662v-6.113h-2.363zM22.356 22.788c-0.147 0.126-0.378 0.236-0.693 0.331-0.305 0.095-0.641 0.142-1.008 0.142-0.441 0-0.819-0.063-1.134-0.189-0.315-0.137-0.53-0.32-0.646-0.551-0.116-0.242-0.257-0.551-0.425-0.929-0.168-0.389-0.347-0.819-0.536-1.292-0.179-0.473-0.368-0.971-0.567-1.497-0.189-0.536-0.373-1.077-0.551-1.623s-0.347-1.082-0.504-1.607c-0.158-0.525-0.294-1.019-0.41-1.481 0.147-0.147 0.357-0.278 0.63-0.394 0.284-0.126 0.583-0.189 0.898-0.189 0.389 0 0.704 0.084 0.945 0.252 0.252 0.158 0.436 0.457 0.551 0.898 0.284 1.029 0.567 2.017 0.851 2.962 0.294 0.935 0.599 1.911 0.914 2.93h0.095c0.284-0.987 0.572-2.064 0.866-3.23 0.305-1.166 0.593-2.326 0.866-3.482 0.189-0.095 0.389-0.173 0.599-0.236 0.221-0.063 0.467-0.095 0.74-0.095 0.389 0 0.719 0.089 0.992 0.268 0.273 0.168 0.41 0.452 0.41 0.851 0 0.231-0.058 0.567-0.173 1.008-0.105 0.441-0.247 0.94-0.425 1.497-0.168 0.546-0.362 1.119-0.583 1.717-0.21 0.599-0.425 1.166-0.646 1.701-0.21 0.525-0.41 0.992-0.599 1.402-0.189 0.399-0.341 0.677-0.457 0.835z">
            </path>
        </symbol>

 <!-- icon-close -->
       <symbol id="icon-close" viewBox="0 0 20 20">
<path d="M10 8.586l-7.071-7.071-1.414 1.414 7.071 7.071-7.071 7.071 1.414 1.414 7.071-7.071 7.071 7.071 1.414-1.414-7.071-7.071 7.071-7.071-1.414-1.414-7.071 7.071z"></path>
</symbol>
 <!-- icon-T2 -->
        <symbol id="icon-t2" viewBox="0 0 32 32">
<path fill="#fff" style="fill: var(--color1, #fff); stroke: var(--color2, #000)" stroke="#000" stroke-linejoin="miter" stroke-linecap="butt" stroke-miterlimit="4" stroke-width="2.2857" d="M30.857 16c0 8.205-6.652 14.857-14.857 14.857s-14.857-6.652-14.857-14.857c0-8.205 6.652-14.857 14.857-14.857s14.857 6.652 14.857 14.857z"></path>
<path fill="#000" style="fill: var(--color2, #000)" d="M9.538 13.105h-2.419v-2.571h8.778v2.571h-2.419v9.066h-3.941v-9.066zM17.033 19.787c1.331-1.195 2.334-2.21 3.011-3.045s1.015-1.528 1.015-2.080c0-0.361-0.113-0.637-0.338-0.829-0.214-0.192-0.507-0.288-0.88-0.288-0.699 0-1.426 0.22-2.182 0.66l-0.829-2.52c0.62-0.316 1.229-0.553 1.827-0.71 0.609-0.158 1.246-0.237 1.911-0.237 0.789 0 1.477 0.158 2.064 0.474 0.598 0.304 1.054 0.727 1.37 1.269 0.316 0.53 0.474 1.139 0.474 1.827 0 1.026-0.344 1.985-1.032 2.875-0.688 0.88-1.725 1.72-3.112 2.52h4.076v2.47h-7.375v-2.385z"></path>
</symbol>


    </defs>
</svg>
